#!OML:ASF X:\für Bonn\!DataBase\2005_08_12_Daniel\c3d\Daniel.ASF
:FULLY-SPECIFIED
:DEGREES
77
root -2.89491 7.07246 -2.91304 313.151 -83.8232 -345.64
lowerback 55.9461 -4.00643 1.97281
upperback 5.03629 -5.81673 -2.81173
thorax -16.2138 -3.12318 -0.952734
lowerneck 7.04238 1.89663 -0.699127
upperneck -3.18237 2.39996 -1.19369
head -2.2045 1.23768 -0.355179
rclavicle 2.22142e-014 -2.06736e-014
rhumerus 66.5 3.96725 -85.3463
rradius 13.2961
rwrist 49.6221
rhand -18.9638 13.6633
rfingers 7.12502
rthumb 7.34014 -16.1894
lclavicle 2.22142e-014 -2.06736e-014
lhumerus 69.7275 0.147789 91.5715
lradius 10.4551
lwrist -60.5174
lhand -16.4171 2.12334
lfingers 7.12502
lthumb 9.79771 31.8754
rfemur 24.4032 -48.8997 -139.087
rtibia 150.619
rfoot -62.6574 86.7337
rtoes 7.71745
lfemur -54.5313 59.2072 33.1845
ltibia 148.488
lfoot -5.87982 -64.6172
ltoes 9.06416
78
root -2.90212 6.92358 -2.91081 313.645 -83.8563 -346.541
lowerback 56.3413 -4.07189 2.07664
upperback 5.09249 -5.84985 -2.80336
thorax -16.1842 -3.15095 -0.967619
lowerneck 6.96438 1.90293 -0.69179
upperneck -3.16527 2.4124 -1.15585
head -2.18485 1.2425 -0.34378
rclavicle -1.16289e-014 -1.94809e-014
rhumerus 66.5414 4.18161 -84.5673
rradius 13.3063
rwrist 48.7486
rhand -18.8125 13.556
rfingers 7.12502
rthumb 7.48611 -16.2915
lclavicle -1.16289e-014 -1.94809e-014
lhumerus 69.6258 0.137987 91.4187
lradius 10.4584
lwrist -60.326
lhand -16.4943 2.06537
lfingers 7.12502
lthumb 9.72332 31.8209
rfemur 23.6111 -48.0878 -141.062
rtibia 151.668
rfoot -84.5771 87.1946
rtoes 7.69125
lfemur -53.4264 61.0818 36.6922
ltibia 149.565
lfoot -4.86117 -66.2196
ltoes 9.10192
79
root -2.90586 6.7874 -2.90861 314.119 -83.9028 -347.209
lowerback 56.5401 -4.12047 2.16349
upperback 5.14246 -5.86721 -2.80287
thorax -16.1442 -3.16832 -0.99507
lowerneck 6.8408 1.91973 -0.687054
upperneck -3.14386 2.44036 -1.09645
head -2.15572 1.25442 -0.325107
rclavicle -1.02871e-014 2.8625e-014
rhumerus 66.498 4.26717 -84.1871
rradius 13.3861
rwrist 48.4746
rhand -18.7318 13.4631
rfingers 7.12502
rthumb 7.56398 -16.3817
lclavicle -1.02871e-014 2.8625e-014
lhumerus 69.5028 0.0950044 91.1794
lradius 10.5319
lwrist -60.0993
lhand -16.4314 2.06316
lfingers 7.12502
lthumb 9.78395 31.8159
rfemur 157.138 47.5938 37.1549
rtibia 207.31
rfoot -106.004 92.862
rtoes 7.52762
lfemur -52.7593 62.8461 39.672
ltibia 150.585
lfoot -3.76007 -67.5437
ltoes 9.10405
80
root -2.9096 6.65827 -2.90611 314.623 -83.9366 -347.9
lowerback 56.7334 -4.17143 2.22114
upperback 5.18235 -5.90086 -2.78742
thorax -16.1128 -3.19068 -0.983819
lowerneck 6.74316 1.94297 -0.662024
upperneck -3.13732 2.47594 -1.08124
head -2.13546 1.27127 -0.32463
rclavicle 2.96686e-014 -2.0276e-014
rhumerus 66.4235 4.35649 -83.9171
rradius 13.4942
rwrist 48.4147
rhand -18.6873 13.4106
rfingers 7.12502
rthumb 7.60694 -16.4326
lclavicle 2.96686e-014 -2.0276e-014
lhumerus 69.3237 0.164434 91.1099
lradius 10.6883
lwrist -60.169
lhand -16.2125 1.97927
lfingers 7.12502
lthumb 9.99517 31.7219
rfemur 158.05 47.1523 35.5973
rtibia 206.333
rfoot -122.371 93.4225
rtoes 7.19112
lfemur -52.1228 64.401 42.5212
ltibia 151.538
lfoot -2.49748 -68.7687
ltoes 9.11835
81
root -2.91404 6.5381 -2.90336 315.104 -83.9638 -348.529
lowerback 56.8455 -4.22181 2.2998
upperback 5.23177 -5.92308 -2.79172
thorax -16.0662 -3.20839 -1.01195
lowerneck 6.71668 1.9564 -0.660356
upperneck -3.15068 2.49771 -1.01596
head -2.13579 1.28036 -0.304914
rclavicle -5.91384e-015 5.96354e-015
rhumerus 66.3406 4.32344 -83.8957
rradius 13.583
rwrist 48.6923
rhand -18.6809 13.3643
rfingers 7.12502
rthumb 7.6132 -16.4787
lclavicle -5.91384e-015 5.96354e-015
lhumerus 69.1137 0.218565 91.1637
lradius 10.9348
lwrist -60.4574
lhand -15.7407 1.91969
lfingers 7.12502
lthumb 10.4503 31.64
rfemur 158.976 46.7717 34.1655
rtibia 205.42
rfoot -132.193 94.2497
rtoes 6.72922
lfemur -51.5633 65.802 45.1869
ltibia 152.433
lfoot -1.06872 -69.871
ltoes 9.06642
82
root -2.91899 6.42702 -2.90053 315.667 -84.0048 -349.207
lowerback 56.906 -4.26513 2.36599
upperback 5.28643 -5.94018 -2.77763
thorax -16.0057 -3.2236 -1.01726
lowerneck 6.73753 1.97338 -0.699062
upperneck -3.21609 2.51882 -0.967007
head -2.16234 1.29043 -0.284548
rclavicle -4.52235e-015 -2.10712e-014
rhumerus 66.2857 4.25974 -84.0651
rradius 13.6362
rwrist 49.0879
rhand -18.7381 13.4309
rfingers 7.12502
rthumb 7.55793 -16.414
lclavicle -4.52235e-015 -2.10712e-014
lhumerus 68.9335 0.328509 91.2917
lradius 11.1868
lwrist -61.0008
lhand -15.1966 1.86642
lfingers 7.12502
lthumb 10.9752 31.5595
rfemur 159.966 46.4336 32.9273
rtibia 204.55
rfoot -137.804 95.2185
rtoes 6.21791
lfemur -50.844 67.1135 47.9188
ltibia 153.259
lfoot 0.39266 -70.9452
ltoes 9.10087
83
root -2.92057 6.38495 -2.89802 316.208 -84.0399 -349.849
lowerback 56.9307 -4.29681 2.42767
upperback 5.34632 -5.94583 -2.76441
thorax -15.9355 -3.2337 -1.02828
lowerneck 6.8464 1.99127 -0.755046
upperneck -3.34134 2.54029 -0.876282
head -2.22572 1.30013 -0.249706
rclavicle -5.06901e-015 4.37326e-015
rhumerus 66.2677 4.19894 -84.1914
rradius 13.6476
rwrist 49.3286
rhand -18.8349 13.5116
rfingers 7.12502
rthumb 7.46447 -16.3367
lclavicle -5.06901e-015 4.37326e-015
lhumerus 68.7981 0.461178 91.5539
lradius 11.4066
lwrist -61.7672
lhand -14.6144 1.75157
lfingers 7.12502
lthumb 11.5366 31.4141
rfemur 159.875 45.776 31.6571
rtibia 204.184
rfoot -135.845 96.3753
rtoes 5.68085
lfemur -48.3773 68.3679 51.423
ltibia 153.561
lfoot 0.483397 -71.9845
ltoes 9.13065
84
root -2.92482 6.30026 -2.89524 316.676 -84.0609 -350.393
lowerback 56.9169 -4.32887 2.48654
upperback 5.42379 -5.95823 -2.76934
thorax -15.8437 -3.24676 -1.05648
lowerneck 6.83287 1.99424 -0.690313
upperneck -3.40767 2.55017 -0.876757
head -2.24433 1.30461 -0.261746
rclavicle -2.24627e-014 -1.98785e-015
rhumerus 66.2873 4.1287 -84.3137
rradius 13.6408
rwrist 49.3898
rhand -18.9251 13.6536
rfingers 7.12502
rthumb 7.37742 -16.1978
lclavicle -2.24627e-014 -1.98785e-015
lhumerus 68.7575 0.631451 92.0152
lradius 11.549
lwrist -62.8169
lhand -14.1892 1.64374
lfingers 7.12502
lthumb 11.9467 31.2828
rfemur 160.779 45.4822 30.7332
rtibia 203.494
rfoot -139.1 97.0972
rtoes 5.16321
lfemur -47.5897 69.3069 53.7889
ltibia 154.183
lfoot 2.16074 -72.8057
ltoes 9.16896
85
root -2.92926 6.22899 -2.8924 317.134 -84.0866 -350.903
lowerback 56.8773 -4.3632 2.54584
upperback 5.48485 -5.97022 -2.77252
thorax -15.7698 -3.25815 -1.08301
lowerneck 6.68691 2.00511 -0.719897
upperneck -3.36208 2.56839 -0.797366
head -2.20389 1.31144 -0.229985
rclavicle 2.68359e-015 3.65764e-014
rhumerus 66.3327 4.13336 -84.2754
rradius 13.5666
rwrist 49.1172
rhand -18.9873 13.8168
rfingers 7.12502
rthumb 7.3174 -16.0367
lclavicle 2.68359e-015 3.65764e-014
lhumerus 68.7637 0.757466 92.2792
lradius 11.5647
lwrist -63.6321
lhand -14.06 1.52287
lfingers 7.12502
lthumb 12.0713 31.1547
rfemur 161.61 45.2435 30.0041
rtibia 202.911
rfoot -141.398 97.7369
rtoes 4.79528
lfemur -46.9447 70.0808 55.8005
ltibia 154.7
lfoot 3.96613 -73.4773
ltoes 9.30239
86
root -2.93318 6.17164 -2.88929 317.635 -84.1014 -351.429
lowerback 56.8389 -4.40109 2.59379
upperback 5.5338 -5.99005 -2.76655
thorax -15.7093 -3.27152 -1.08972
lowerneck 6.37269 2.02199 -0.746013
upperneck -3.24391 2.59673 -0.731508
head -2.10862 1.32327 -0.200744
rclavicle -1.21259e-014 7.55382e-015
rhumerus 66.3863 4.14685 -84.3326
rradius 13.4922
rwrist 48.8497
rhand -18.9501 13.9719
rfingers 7.12502
rthumb 7.35328 -15.8803
lclavicle -1.21259e-014 7.55382e-015
lhumerus 68.8814 0.963556 92.8014
lradius 11.4389
lwrist -64.6427
lhand -14.2554 1.39872
lfingers 7.12502
lthumb 11.8829 31.0415
rfemur 162.378 45.0674 29.4378
rtibia 202.424
rfoot -142.808 98.402
rtoes 4.22521
lfemur -46.3297 70.7199 57.5458
ltibia 155.121
lfoot 5.66958 -74.0225
ltoes 9.38318
